<?xml version="1.0" encoding="UTF-8" standalone="no"?>
<!-- Created with Inkscape (http://www.inkscape.org/) -->

<svg
   xmlns:dc="http://purl.org/dc/elements/1.1/"
   xmlns:cc="http://creativecommons.org/ns#"
   xmlns:rdf="http://www.w3.org/1999/02/22-rdf-syntax-ns#"
   xmlns:svg="http://www.w3.org/2000/svg"
   xmlns="http://www.w3.org/2000/svg"
   xmlns:sodipodi="http://sodipodi.sourceforge.net/DTD/sodipodi-0.dtd"
   xmlns:inkscape="http://www.inkscape.org/namespaces/inkscape"
   version="1.1"
   id="svg10"
   width="135.01385"
   height="127.69336"
   viewBox="0 0 135.01385 127.69336"
   sodipodi:docname="Max nose.svg"
   inkscape:version="0.92.4 (5da689c313, 2019-01-14)">
  <metadata
     id="metadata16">
    <rdf:RDF>
      <cc:Work
         rdf:about="">
        <dc:format>image/svg+xml</dc:format>
        <dc:type
           rdf:resource="http://purl.org/dc/dcmitype/StillImage" />
      </cc:Work>
    </rdf:RDF>
  </metadata>
  <defs
     id="defs14" />
  <sodipodi:namedview
     pagecolor="#ffffff"
     bordercolor="#666666"
     borderopacity="1"
     objecttolerance="10"
     gridtolerance="10"
     guidetolerance="10"
     inkscape:pageopacity="0"
     inkscape:pageshadow="2"
     inkscape:window-width="1366"
     inkscape:window-height="705"
     id="namedview12"
     showgrid="false"
     inkscape:zoom="1.4142136"
     inkscape:cx="275.02534"
     inkscape:cy="55.727505"
     inkscape:window-x="-8"
     inkscape:window-y="-8"
     inkscape:window-maximized="1"
     inkscape:current-layer="svg10" />
  <path
     id="path360"
     style="fill:#000000"
     d="M 133.2207,0 C 126.96386,0.26797 125.87208,-0.21306813 122.5,0.26367188 115.9,1.1967619 104.88223,3.1138375 98.015625,4.5234375 c -6.86661,1.4096 -16.99161,4.0392675 -22.5,5.8437505 C 70.007235,12.171667 62.4625,15.025584 58.75,16.708984 55.0375,18.392384 52,19.576927 52,19.341797 c 0,-0.23512 -0.989469,0.35538 -2.199219,1.3125 -1.20975,0.95711 -4.92225,4.28943 -8.25,7.40625 -3.48006,3.25947 -8.178173,6.505785 -11.058593,7.640625 -2.754371,1.08518 -8.984534,3.918592 -13.845704,6.294922 C 11.785312,44.372434 6.0512619,48.019956 3.9042969,50.103516 0.65906458,53.252906 0,54.561985 0,57.859375 c 0,2.99938 0.74767634,4.816408 3.0644531,7.455078 1.916873,2.18319 6.8766091,5.337231 13.2499999,8.425781 C 21.916941,76.455204 30.775,80.050269 36,81.730469 c 5.225,1.6802 11.385716,3.540332 13.691406,4.132812 3.97609,1.02172 4.228465,1.308428 4.865235,5.554688 0.36925,2.46237 0.95659,4.4874 1.30664,4.5 0.35005,0.0126 6.418035,0.8821 13.484375,1.93164 7.06635,1.04953 13.103196,2.163731 13.416016,2.476561 0.31283,0.31282 -0.180996,0.56836 -1.097656,0.56836 -0.96175,0 -1.666016,0.79133 -1.666016,1.87109 0,1.49031 1.01773,2.0069 5,2.53516 4.20289,0.55754 5,0.99771 5,2.76367 0,1.15549 -1.125,3.14366 -2.5,4.41797 -1.87332,1.73613 -2.5,3.3322 -2.5,6.36524 0,2.69705 0.659059,4.70582 1.974609,6.02148 1.08601,1.08601 3.178511,2.27706 4.650391,2.64648 1.76727,0.44357 3.821418,0.055 6.048828,-1.14453 1.85512,-0.99905 3.643552,-2.88994 3.972652,-4.20117 0.32921,-1.31124 0.33005,-4.01775 0.008,-6.01562 -0.33774,-2.08125 -0.11683,-4.20238 0.51758,-4.9668 0.60899,-0.73378 1.22789,-2.43151 1.375,-3.77148 0.20354,-1.85429 -0.42254,-2.74081 -2.62305,-3.71485 -1.590194,-0.70388 -3.122922,-1.88464 -3.406252,-2.62305 -0.28333,-0.73833 -0.226447,-2.494289 0.126953,-3.902339 l 0.642578,-2.560547 9.009771,0.640625 c 3.10317,0.22027 13.87704,0.406802 27.71679,0.519532 -0.005,-1.92127 -0.0172,-3.98471 -0.0137,-5.84961 6e-4,-1.585 -0.004,-3.20067 0,-5.03125 v -7.5 c 0.0184,-3.70051 0.01,-6.70373 0,-8.5 v -12 c 0.0189,-7.08113 0.008,-10.308795 0,-13.078125 v -9.460937 c -0.0115,-4.16423 0.009,-8.207358 0,-10.460938 V 14.501953 C 135.00725,10.495493 135.0248,5.27202 135,2.25 134.9403,1.65474 134.82261,1.4641087 134.50781,0.85546875 133.93495,0.07254875 133.54132,0.08314 133.2207,0 Z m -1.12304,1.5097656 c 0.64416,-0.0158 1.04921,0.00395 1.15234,0.064453 0.4125,0.24143 0.75,0.8613662 0.75,1.3789062 0,0.51754 -1.76753,0.9414063 -3.92773,0.9414062 -2.1602,0 -7.4477,0.4649532 -11.75,1.0332032 -4.3023,0.56825 -9.23231,1.2330925 -10.95508,1.4765625 -1.72277,0.24347 -8.247774,1.53715 -14.500002,2.875 C 86.614951,10.617147 80.7125,12.025886 79.75,12.410156 78.7875,12.794436 78,12.678847 78,12.154297 c 0,-0.52456 4.8375,-2.119032 10.75,-3.544922 5.9125,-1.4259 13.26087,-3.0864331 16.33008,-3.6894531 3.0692,-0.60302 10.4942,-1.7020563 16.5,-2.4414063 4.50434,-0.55451 8.58509,-0.92137 10.51758,-0.96875 z M 134,4.6367188 V 32.265625 c 0,23.89243 -0.20286,27.628906 -1.5,27.628906 -0.825,0 -1.5,0.438176 -1.5,0.972657 0,0.568429 -5.70706,1.087259 -13.75,1.25 -13.4013,0.27116 -13.75886,0.334403 -14.07031,2.527343 -0.29555,2.08102 -0.78373,2.234851 -6.500002,2.056641 C 93.280438,66.595202 87.6875,66.349567 84.25,66.154297 L 78,65.798828 V 39.884766 13.970703 l 3.912109,-1.052734 c 2.15197,-0.57947 8.11447,-1.908978 13.25,-2.9550784 C 100.29765,8.9167806 106.525,7.7992286 109,7.4804688 c 3.16202,-0.40724 3.90534,-0.3032338 2.5,0.3476562 -1.1,0.50947 -3.35,1.0115044 -5,1.1152344 l -3,0.1875 2.67383,0.6328125 c 2.56229,0.6051601 2.60428,0.7170871 1,2.6796871 -0.92104,1.12675 -2.43566,2.340656 -3.36719,2.697266 -1.44757,0.55415 -1.73819,2.525219 -2,13.568359 -0.16847,7.10636 -0.0816,14.180794 0.19336,15.720704 0.275,1.539909 1.175,3.006192 2,3.257812 1.2106,0.36923 1.25883,0.202177 0.25,-0.867188 -0.6875,-0.728749 -1.25,-2.36 -1.25,-3.625 0,-1.448059 0.59722,-2.300781 1.61133,-2.300781 1.37244,0 1.52826,0.965455 1.06055,6.521485 -0.32781,3.89408 -0.17454,6.289305 0.3789,5.947265 0.50971,-0.31501 0.67073,0.091 0.35938,0.902344 -0.33654,0.87699 0.28076,1.927777 1.52148,2.591797 1.20078,0.64264 5.58709,0.995135 10.32813,0.828125 5.93978,-0.20924 8.17043,-0.640006 7.99023,-1.541016 -0.1375,-0.6875 0.3125,-1.1375 1,-1 0.71885,0.14377 1.21883,-0.70607 1.17773,-2 -0.0393,-1.2375 -0.15704,-10.9125 -0.26367,-21.5 -0.10664,-10.5875 -0.5906,-19.874992 -1.07422,-20.638672 -0.63075,-0.996 -3.09953,-1.3809809 -8.73437,-1.3632809 L 110.5,9.6660156 117.5,8.75 c 3.85,-0.50448 8.8,-1.3281581 11,-1.8300781 3.66354,-0.83583 3.53737,-0.8722544 -1.5,-0.4277344 -3.025,0.26695 -7.3,0.738195 -9.5,1.046875 -2.71928,0.38154 -3.67982,0.2327194 -3,-0.4628906 0.55,-0.56277 5.1625,-1.3406988 10.25,-1.7304688 z m -13.04102,7.3417972 c 0.62316,0.007 1.16189,0.03167 1.57032,0.07813 l 2.9707,0.33789 v 20.5 20.5 l -7.54492,0.289063 c -4.14973,0.15861 -7.86223,-0.0302 -8.25,-0.417969 C 109.31731,52.87782 109,49.936856 109,46.728516 c 0,-5.10754 0.24193,-5.833985 1.94141,-5.833985 1.06754,0 2.21867,-0.45 2.55859,-1 0.35052,-0.56716 -0.49005,-1 -1.94141,-1 -2.46642,0 -2.55859,-0.221887 -2.55859,-6.117187 0,-5.9233 0.0756,-6.10215 2.4082,-5.65625 1.72525,0.3298 2.26194,0.0797 1.89258,-0.882813 -0.28364,-0.73914 -1.36704,-1.34375 -2.4082,-1.34375 -1.64446,0 -1.89258,-0.778044 -1.89258,-5.927734 v -5.927735 l 5.2793,-0.660156 c 2.17784,-0.27207 4.81021,-0.42097 6.67968,-0.40039 z M 76.375,12.171875 c 0.138187,-0.0163 0.224088,-0.01032 0.251953,0.01758 0.2229,0.22292 0.287265,12.284658 0.140625,26.804688 L 76.5,65.394531 69,64.730469 c -4.125,-0.36506 -12.487864,-1.216078 -18.583984,-1.892578 -10.97695,-1.21813 -11.080135,-1.25549 -10.615235,-3.6875 0.3808,-1.99205 0.113535,-2.380947 -1.416015,-2.066407 -1.04071,0.21401 -1.822794,1.15489 -1.746094,2.09961 0.10164,1.25263 -0.63589,1.710937 -2.75,1.710937 H 31 v -9.5 -9.5 h 12.392578 c 10.09352,0 12.49994,-0.27832 12.96875,-1.5 0.33587,-0.87527 1.834936,-1.5 3.597656,-1.5 1.66148,0 5.95046,-1.171979 9.53125,-2.605469 6.45302,-2.58333 6.509766,-2.640709 6.509766,-6.5 0,-2.395758 -0.48088,-3.931587 -1.25,-3.992187 -0.6875,-0.0542 -7.2125,-0.01546 -14.5,0.08594 C 52.9625,25.984258 47,25.841406 47,25.566406 c 0,-0.275 2.8125,-2.053705 6.25,-3.953125 3.4375,-1.89941 10.012618,-4.887235 14.611328,-6.640625 4.02388,-1.53419 7.546366,-2.686471 8.513672,-2.800781 z m 28.68164,3.931641 c 0.65938,0.0883 0.94336,1.390201 0.94336,4.207031 0,3.4826 -0.37319,4.583984 -1.55664,4.583984 -1.2103,0 -1.48894,-0.929755 -1.25,-4.171875 0.16913,-2.29473 0.86914,-4.357904 1.55664,-4.583984 0.10975,-0.0361 0.21244,-0.04776 0.30664,-0.03516 z m 12.33203,7.939453 C 116.57663,24.013369 116,24.453067 116,25.154297 c 0,0.77366 0.30937,1.71562 0.6875,2.09375 0.37812,0.37813 1.16562,0.528774 1.75,0.333984 0.58437,-0.19479 1.0625,-0.986172 1.0625,-1.757812 0,-0.77163 -0.7875,-1.554875 -1.75,-1.740235 -0.12462,-0.024 -0.24532,-0.03682 -0.36133,-0.04102 z m -57.292967,2.851562 h 3.720703 l -1.599609,5 c -0.87942,2.75 -2.075683,4.954638 -2.658203,4.898438 C 58.976074,36.736819 57.0375,36.221857 55.25,35.648438 53.4625,35.075026 52,34.201684 52,33.708984 c 0,-0.49271 0.98407,-2.227738 2.1875,-3.855468 1.74249,-2.35684 2.945733,-2.958985 5.908203,-2.958985 z m 44.404297,0 c 1.16667,0 1.5,1.33333 1.5,6 0,4.66667 -0.33333,6 -1.5,6 -1.16667,0 -1.5,-1.33333 -1.5,-6 0,-4.66667 0.33333,-6 1.5,-6 z m -35.964844,0.148438 c 0.51963,-0.0143 1.095298,7.02e-4 1.707032,0.04492 3.19432,0.23159 4.328338,0.764129 4.59375,2.162109 0.19383,1.02092 -0.02811,2.227448 -0.492188,2.679688 -0.46408,0.452246 -3.239066,1.759385 -6.166016,2.90625 l -5.320312,2.085937 0.705078,-2.263672 c 0.38858,-1.24502 0.983896,-2.488672 1.322266,-2.763672 0.33837,-0.275 0.659843,-1.0625 0.714843,-1.75 0.055,-0.6875 0.1675,-1.72501 0.25,-2.30664 0.0649,-0.45757 1.126658,-0.751922 2.685547,-0.794922 z m -14.628906,0.107422 -2.572266,3.373047 c -2.32944,3.054048 -3.053373,3.371093 -7.683593,3.371093 h -5.111329 l 2.980469,-2.888672 c 2.16527,-2.09825 4.267144,-3.019953 7.683594,-3.371093 z m 62.56641,3.544921 c -1.16824,0.0339 -2.19993,0.191053 -2.75,0.453126 -0.9779,0.46583 -1.50168,1.296263 -1.16211,1.845703 0.33957,0.54944 2.94096,0.863758 5.77929,0.699218 2.83833,-0.16454 5.06264,-0.748828 4.94336,-1.298828 -0.11929,-0.55 -1.91929,-1.246125 -4,-1.546875 -0.52018,-0.0752 -1.06688,-0.122181 -1.60937,-0.144531 -0.40687,-0.0168 -0.81176,-0.01816 -1.20117,-0.0078 z m -73.402348,4.275391 c 2.985952,0.0418 7.004688,0.645114 8.929688,1.339844 1.925,0.69473 3.5,1.897898 3.5,2.673828 0,1.12288 -2.49987,1.464458 -12.25,1.679687 C 31.97262,40.912973 31,40.790294 31,39.115234 c 0,-1.15304 1.215784,-2.258521 3.320312,-3.019531 1.82655,-0.66049 5.764057,-1.1668 8.75,-1.125 z M 30,37.996094 v 6.949218 6.949219 l -7.75,-0.15039 C 17.9875,51.661731 13.2625,51.406854 11.75,51.177734 10.2375,50.948604 9,50.171512 9,49.451172 c 0,-0.72034 3.0375,-2.894874 6.75,-4.833984 3.7125,-1.93911 8.4375,-4.223269 10.5,-5.074219 z m 9.957031,5.314453 c -0.546706,0.009 -1.185478,0.09171 -1.783203,0.248047 C 36.978378,43.871214 36,44.525869 36,45.011719 c 0,0.48585 1.098866,0.882812 2.441406,0.882812 1.34254,0 2.699195,-0.41965 3.015625,-0.93164 0.31644,-0.512 0.195952,-1.164702 -0.267578,-1.451172 -0.23176,-0.14326 -0.685716,-0.209792 -1.232422,-0.201172 z M 6.9179688,50.109375 C 7.722842,50.106405 8,52.292827 8,58.310547 c 0,4.72083 -0.1404,8.583984 -0.3125,8.583984 -0.1721,0 -1.4725619,-1.2375 -2.8886719,-2.75 C 3.3827171,62.632031 1.9420924,60.45732 1.5976562,59.3125 1.1958472,57.97699 1.7837771,56.034525 3.2363281,53.890625 4.4814751,52.052845 6.0625,50.364402 6.75,50.138672 c 0.058424,-0.0192 0.1143105,-0.0291 0.1679688,-0.0293 z M 9,51.644531 l 3.125,0.625 c 1.71875,0.34375 6.44375,0.625 10.5,0.625 H 30 v 6 6 l -3.25,-0.179687 c -1.7875,-0.0991 -5.5,-0.329639 -8.25,-0.511719 -2.75,-0.18209 -6.0125,-0.560584 -7.25,-0.839844 C 9.244621,62.910751 9,62.24647 9,57.25 Z m 108.89062,4.359375 c 1.45002,9.9e-4 2.86274,0.0566 3.88672,0.164063 2.04796,0.21487 0.12266,0.386812 -4.27734,0.382812 -4.4,-0.004 -6.0747,-0.179315 -3.72266,-0.390625 1.17602,-0.10541 2.66336,-0.15755 4.11328,-0.15625 z M 133,60.894531 c 0.57778,0 1,3.16667 1,7.5 0,4.33333 -0.42222,7.5 -1,7.5 -0.57778,0 -1,-3.16667 -1,-7.5 0,-4.33333 0.42222,-7.5 1,-7.5 z m -102,0.740235 4.75,0.580078 c 2.6125,0.3191 11.95,1.308109 20.75,2.199218 8.8,0.8911 17.0125,1.823503 18.25,2.070313 2.09284,0.41738 2.25,0.971297 2.25,7.929687 0,4.11452 -0.3375,7.440025 -0.75,7.390626 -0.4125,-0.0494 -4.269424,-0.724744 -8.570312,-1.501954 -4.30088,-0.77721 -13.153245,-2.76055 -19.671876,-4.40625 C 41.489185,74.250784 34.996115,72.462948 33.578125,71.923828 31.316895,71.064108 31,70.371682 31,66.289062 Z m 87.58203,1.259765 H 130 v 4.5 4.5 h -12.33398 c -6.78334,0 -12.63334,-0.299345 -13,-0.666015 C 104.29935,70.861856 104,69.108474 104,67.333984 c 0,-2.01951 0.59192,-3.452091 1.58203,-3.832031 0.86998,-0.33385 6.71998,-0.607422 13,-0.607422 z M 11.849609,64.6875 c 1.518078,0.0112 3.830769,0.175511 7.34961,0.457031 5.610055,0.44884 10.360437,0.975662 10.554687,1.169922 0.19425,0.19425 0.215606,2.800849 0.04883,5.792969 L 29.5,77.548828 23.486328,74.970703 C 20.179188,73.553433 15.56669,71.37367 13.236328,70.125 10.715303,68.77415 9,67.140367 9,66.091797 9,65.078517 9.3194842,64.6689 11.849609,64.6875 Z M 78,66.597656 l 8.25,0.642578 c 4.5375,0.35322 10.130437,0.645438 12.429688,0.648438 3.571752,0.005 4.226982,0.333469 4.500002,2.255859 0.31145,2.19294 0.66901,2.256184 14.07031,2.527344 12.92367,0.2615 13.75,0.39672 13.75,2.25 0,1.08603 0.67382,1.972656 1.5,1.972656 1.08333,0 1.5,1.11111 1.5,4 v 4 L 118.75,84.757812 C 110.3625,84.682172 99.225,84.250148 94,83.798828 88.775,83.347508 83.0375,82.713585 81.25,82.390625 L 78,81.804688 v -7.603516 z m -46.316406,6.302735 c 0.44903,0.004 5.541406,1.3262 11.316406,2.9375 5.775,1.6113 15.7875,3.923141 22.25,5.138671 9.97956,1.87705 11.75,2.490004 11.75,4.064454 0,1.38834 -0.69044,1.81984 -2.75,1.71875 -1.5125,-0.0742 -5.9,-0.71024 -9.75,-1.41211 -3.85,-0.70181 -8.125,-1.069176 -9.5,-0.816406 -1.375,0.25278 -7.225,-1.038321 -13,-2.869141 -9.70784,-3.07762 -10.523856,-3.532245 -10.816406,-6.046875 -0.17403,-1.4959 0.05097,-2.718843 0.5,-2.714843 z M 79.125,83.203125 c 0.29693,-0.004 0.666375,0.0524 1.125,0.154297 1.2375,0.27496 7.425,0.956985 13.75,1.515625 6.325,0.55864 17.9125,1.015578 25.75,1.017578 l 14.25,0.0039 v 4 4 l -12.75,-0.185547 v 0.002 c -7.0125,-0.101732 -15.21981,-0.354007 -18.23828,-0.560547 -3.018482,-0.20655 -6.168471,-0.96603 -7.000001,-1.6875 C 95.180189,90.741191 90.7875,89.561147 86.25,88.841797 78.64103,87.635507 78,87.352468 78,85.195312 c 0,-1.43021 0.234211,-1.979237 1.125,-1.992187 z m -21.134766,3.373047 c 0.156989,-0.006 0.326855,-8.12e-4 0.509766,0.01758 1.1,0.10983 9.5375,1.416737 18.75,2.904297 L 94,92.203125 v 3.345703 c 0,3.12886 -0.2106,3.339541 -3.25,3.244141 -1.7875,-0.0561 -9.943007,-1.132425 -18.123047,-2.390625 -9.26003,-1.42433 -15.207988,-2.801508 -15.759765,-3.648438 -0.487432,-0.74818 -0.769434,-2.484375 -0.626954,-3.859375 0.165839,-1.60047 0.651083,-2.273069 1.75,-2.318359 z m 38.84375,20.318358 c 1.00834,0 2.128335,0.29631 2.490235,0.6582 0.36189,0.3619 0.157492,1.2619 -0.455078,2 -0.61257,0.73811 -1.433229,1.3418 -1.824219,1.3418 -0.39099,0 -1.012246,-0.29934 -1.378906,-0.66601 -0.36667,-0.36666 -0.666016,-1.26666 -0.666016,-2 0,-0.73333 0.825654,-1.33399 1.833984,-1.33399 z m -3.111328,5 c 1.25262,0 3.177344,0.9 4.277344,2 1.1,1.1 2,3.31766 2,4.92774 0,1.97147 -0.860316,3.60422 -2.634766,5 -1.44917,1.13992 -3.47417,2.07226 -4.5,2.07226 -1.02583,0 -2.765234,-0.9 -3.865234,-2 -1.22555,-1.22555 -2,-3.33339 -2,-5.44336 0,-2.42458 0.657686,-3.90385 2.222656,-5 1.22237,-0.85618 3.24737,-1.55664 4.5,-1.55664 z m -0.002,2 c -1.82679,0 -3.861484,0.53922 -4.521484,1.19922 -0.66,0.66 -1.199219,2.0403 -1.199219,3.06641 0,1.02617 0.465806,2.73694 1.035156,3.80078 0.71956,1.34451 2.098185,1.93359 4.521485,1.93359 2.74825,0 3.72706,-0.52922 4.625,-2.5 0.85211,-1.87016 0.85211,-3.12984 0,-5 -0.88221,-1.93625 -1.888488,-2.5 -4.460938,-2.5 z m 0.167969,2.07031 c 0.207836,0.0172 -0.05906,0.24463 -0.785156,0.75196 -0.76768,0.53637 -1.11913,1.69566 -0.78125,2.57617 0.33788,0.8805 0.147162,1.60156 -0.423828,1.60156 -0.570994,0 -0.8945,-0.9774 -0.71875,-2.17187 0.175978,-1.19441 0.995312,-2.35373 1.820312,-2.57618 0.468206,-0.12624 0.76397,-0.19195 0.888672,-0.18164 z"
     inkscape:connector-curvature="0"
     inkscape:export-xdpi="750.29742"
     inkscape:export-ydpi="750.29742" />
</svg>
