<?xml version="1.0" encoding="UTF-8" standalone="no"?>
<!-- Created with Inkscape (http://www.inkscape.org/) -->

<svg
   xmlns:dc="http://purl.org/dc/elements/1.1/"
   xmlns:cc="http://creativecommons.org/ns#"
   xmlns:rdf="http://www.w3.org/1999/02/22-rdf-syntax-ns#"
   xmlns:svg="http://www.w3.org/2000/svg"
   xmlns="http://www.w3.org/2000/svg"
   xmlns:sodipodi="http://sodipodi.sourceforge.net/DTD/sodipodi-0.dtd"
   xmlns:inkscape="http://www.inkscape.org/namespaces/inkscape"
   version="1.1"
   id="svg208"
   width="165.80736"
   height="153.82056"
   viewBox="0 0 165.80736 153.82056"
   sodipodi:docname="Neo nose.svg"
   inkscape:version="0.92.4 (5da689c313, 2019-01-14)"
   inkscape:export-filename="C:\Users\ASUS\Desktop\Max\Neo nose.png"
   inkscape:export-xdpi="300"
   inkscape:export-ydpi="300">
  <metadata
     id="metadata214">
    <rdf:RDF>
      <cc:Work
         rdf:about="">
        <dc:format>image/svg+xml</dc:format>
        <dc:type
           rdf:resource="http://purl.org/dc/dcmitype/StillImage" />
      </cc:Work>
    </rdf:RDF>
  </metadata>
  <defs
     id="defs212" />
  <sodipodi:namedview
     pagecolor="#ffffff"
     bordercolor="#666666"
     borderopacity="1"
     objecttolerance="10"
     gridtolerance="10"
     guidetolerance="10"
     inkscape:pageopacity="0"
     inkscape:pageshadow="2"
     inkscape:window-width="1366"
     inkscape:window-height="705"
     id="namedview210"
     showgrid="false"
     inkscape:zoom="1.4142136"
     inkscape:cx="50.568849"
     inkscape:cy="116.16744"
     inkscape:window-x="-8"
     inkscape:window-y="-8"
     inkscape:window-maximized="1"
     inkscape:current-layer="svg208" />
  <path
     id="path358"
     style="fill:#000000"
     d="m 135.37455,0 c -0.81941,0.007 -1.61745,0.49057 -2.28711,1.40821 -0.7676,1.05186 -2.19451,2.83122 -3.16992,3.95508 -0.97541,1.12385 -2.02915,2.71065 -2.3418,3.52539 -0.4173,1.08746 -3.72639,1.81347 -12.44531,2.73046 -6.53231,0.68702 -17.454593,2.3821 -24.273433,3.76563 -6.81884,1.38353 -16.344959,3.997 -21.167969,5.80859 -4.82301,1.8116 -11.327015,4.83167 -14.453125,6.71094 -3.12611,1.87927 -9.640772,7.12939 -14.476562,11.66797 -6.45917,6.06218 -11.138812,9.43646 -17.638672,12.71289 -4.86625,2.45297 -11.386352,6.46933 -14.4882815,8.92578 -4.10162,3.24812 -6.1195075,5.7215 -7.3984375,9.07031 -1.48635009,3.89195 -1.57324316,5.22283 -0.56445314,8.58985 0.65644004,2.19102 2.58488624,5.56739 4.28515624,7.5039 1.79995,2.05003 6.4790949,5.14846 11.2031249,7.41602 4.46242,2.14198 12.069474,5.02678 16.902344,6.41211 4.83287,1.38533 14.28287,3.43382 21,4.55078 6.71713,1.11696 18.737883,2.48439 26.712891,3.03906 7.974997,0.55466 17.951657,1.01258 22.171867,1.01758 l 7.67383,0.01 4.57617,6.88476 c 2.51724,3.78647 4.57813,7.23582 4.57813,7.66602 0,0.4302 -0.29632,0.4869 -0.65821,0.125 -0.3619,-0.36189 -1.2619,-0.1575 -2,0.45508 -0.73811,0.61254 -1.37339,0.72203 -1.41211,0.24218 -0.0387,-0.47984 -0.42805,0.027 -0.86328,1.12696 -0.43523,1.1 -0.57999,2.5625 -0.32226,3.25 0.25774,0.6875 1.77017,1.25 3.36133,1.25 2.23813,0 2.89453,0.45897 2.89453,2.02539 0,1.20967 -0.954,2.38775 -2.36914,2.92578 -1.30277,0.49531 -3.32777,2.11912 -4.5,3.60937 -1.23751,1.57324 -2.13086,4.15379 -2.13086,6.15235 0,2.47106 0.82339,4.26686 2.92187,6.36523 2.16083,2.16083 3.87364,2.92188 6.56641,2.92188 2.00346,0 4.50828,-0.463 5.5664,-1.0293 1.05815,-0.56631 2.60291,-2.34284 3.4336,-3.94922 0.83069,-1.60639 1.50707,-3.73089 1.5039,-4.7207 -0.003,-0.98981 -0.63387,-3.00556 -1.40234,-4.47852 -1.30071,-2.49309 -1.19696,-2.90233 1.50586,-5.92969 1.59686,-1.7886 2.9043,-3.88858 2.9043,-4.66601 0,-0.77743 -0.9,-1.64789 -2,-1.93555 -1.1,-0.28766 -2,-1.32377 -2,-2.30078 0,-0.97701 0.62572,-2.01507 1.39062,-2.30859 1.06834,-0.40996 1.26869,-2.04304 0.86719,-7.04493 l -0.52344,-6.51171 33.24219,0.38867 c 0.0126,-1.69041 0.0234,-3.3661 0.0234,-5.17578 v -3.64063 c -7.1e-4,-7.27472 -0.0262,-16.78229 0,-23.94726 v -22.25 c 0.0774,-7.00413 0,-14.70907 0,-22 v -20.5 c -0.004,-0.95053 0.001,-0.94974 0.0176,-2 h -30.23438 l 0.6543,-2.75 c 0.36074,-1.5125 0.89092,-3.5387 1.17773,-4.50391 0.32123,-1.08106 -0.13581,-2.00704 -1.1914,-2.41211 -0.27407,-0.10517 -0.54913,-0.15654 -0.82227,-0.1543 z m -0.16016,1.82032 c 0.1901,0 -0.0998,1.75628 -0.64453,3.90234 -0.73825,2.90848 -1.58911,4.01689 -3.33984,4.35156 -2.32945,0.4453 -2.32441,0.41287 0.64453,-3.90234 1.64643,-2.39299 3.14974,-4.35156 3.33984,-4.35156 z m 28.5586,9.69531 -0.16016,36.90234 c -0.088,20.29624 -0.34607,35.32735 -0.57226,33.40235 -0.2262,-1.925 -0.79511,-3.89473 -1.26563,-4.37696 -0.47052,-0.48224 -2.06066,-0.5727 -3.5332,-0.20312 -2.36982,0.59479 -2.63239,1.06703 -2.27539,4.125 l 0.40429,3.45508 -22.54882,-0.22071 C 121.41976,84.47799 104.63548,84.24036 96.522993,84.07227 l -14.75,-0.30469 V 51.43164 19.09375 l 8.25,-1.61328 c 4.537497,-0.88778 13.424997,-2.31164 19.749997,-3.16406 6.325,-0.85242 21.0625,-1.83198 32.75,-2.17578 z m -83.999997,8.16992 v 32.06836 32.06641 l -5.25,-0.11524 c -2.887502,-0.0638 -5.925001,-0.263 -6.75,-0.44336 -0.825002,-0.18035 -7.350001,-0.63536 -14.5,-1.00976 -8.818242,-0.46176 -12.27623,-0.95152 -10.75,-1.52344 1.92356,-0.72081 2.249999,-1.57288 2.25,-5.875 v -5.0332 h -5.59375 -5.591797 l 0.341797,5.26367 0.34375,5.26172 -5.75,-0.95313 -5.75,-0.95312 v -7.94141 c -2e-6,-6.19499 -0.440584,-8.6526 -2,-11.17578 l -1.998047,-3.23438 7.177734,-3.20898 c 3.94795,-1.76527 9.167499,-3.37212 11.599609,-3.57031 2.43209,-0.19818 5.295182,-1.15058 6.363282,-2.11719 1.65236,-1.49537 1.851089,-1.51831 1.326172,-0.15039 -0.494211,1.28788 0.488096,1.83722 4.941406,2.76172 3.05754,0.63475 6.803629,1.01075 8.324218,0.83594 2.703421,-0.31082 2.765626,-0.46237 2.765626,-6.81836 v -6.5 h -7.751954 c -4.26307,0 -7.75057,-0.0895 -7.75,-0.19922 5.7e-4,-0.10971 2.912394,-2.27726 6.470704,-4.81641 3.558309,-2.53916 10.19581,-6.10595 14.75,-7.92773 4.55419,-1.82177 9.293749,-3.62303 10.53125,-4.00196 z m 37.636717,3.13477 c -7.29786,0 -9.85852,0.36437 -11.06641,1.57226 -1.31961,1.31961 -1.57031,4.65164 -1.57031,20.79883 0,13.40765 -0.35748,19.58599 -1.17774,20.40625 -0.90183,0.90183 -0.74771,1.64787 0.65625,3.19922 1.64954,1.82273 3.05289,2.02344 14.14063,2.02344 11.49542,0 12.38431,-0.13949 13.4375,-2.10743 0.81565,-1.52402 0.82624,-2.40905 0.0351,-3.19921 -0.71648,-0.71648 -1.09179,-7.89703 -1.09179,-20.85743 0,-18.51743 -0.12336,-19.83092 -1.93555,-20.80078 -1.06384,-0.56935 -6.20586,-1.03515 -11.42773,-1.03515 z m 10.36328,2.92773 V 45.78516 65.82032 H 117.7515 107.73002 l 0.27148,-19.75 0.27149,-19.75 9.75,-0.28516 z m -9.91797,5.07227 c -1.14583,0 -2.08203,0.37565 -2.08203,0.83398 0,0.45834 0.30937,1.14336 0.6875,1.52149 0.37812,0.37816 1.1375,0.53685 1.6875,0.35351 0.55,-0.18333 1.17682,-0.86836 1.39453,-1.52148 0.22111,-0.66333 -0.52375,-1.1875 -1.6875,-1.1875 z m -55.082027,6 v 6.33398 c -10e-7,3.48334 0.299345,6.63334 0.666015,7 0.36666,0.36667 2.793088,0.66602 5.392578,0.66602 3.38732,0 4.898965,-0.44839 5.333985,-1.58203 0.33385,-0.86998 0.607404,-3.47881 0.607422,-5.79883 -10e-7,-2.32001 -0.541172,-4.75797 -1.201172,-5.41797 -0.66,-0.66 -3.36,-1.20117 -6,-1.20117 z m 95.214837,1.67578 c -0.46842,0.0143 -0.89757,0.42194 -1.63281,1.23437 -0.87028,0.96166 -1.58203,2.85956 -1.58203,4.21875 0,1.35919 0.53922,3.01188 1.19922,3.67188 0.66,0.66 1.69578,1.19922 2.30078,1.19922 0.605,0 1.63883,-0.53922 2.29883,-1.19922 0.66,-0.66 1.20117,-2.35958 1.20117,-3.77735 0,-1.41777 -0.86325,-3.31762 -1.91797,-4.2207 -0.89106,-0.76295 -1.39877,-1.14121 -1.86719,-1.12695 z m -108.871087,0.20117 -3.421876,3.91992 c -2.341819,2.68361 -4.460257,4.06315 -6.710937,4.36719 l -3.289063,0.44336 3.789063,-3.68555 c 2.08398,-2.0278 5.103707,-3.99366 6.710937,-4.36719 z m 15.65625,0.002 3.75,0.31055 c 3.713847,0.30738 3.752837,0.35634 4.054687,5.06055 l 0.304687,4.75 H 68.82768 64.772993 v -5.06055 z m -7.927735,0.1211 c 2.846,0 2.927729,0.13875 2.927735,5 v 5 l -3.25,-0.14844 c -1.787501,-0.0824 -4.487501,-0.33729 -6,-0.56641 -1.512502,-0.22913 -2.75,-0.73487 -2.75,-1.12304 0,-0.38814 1.382225,-2.38328 3.072265,-4.4336 2.27087,-2.75495 3.83675,-3.72851 6,-3.72851 z m 58.998042,0 c -0.58929,0 -1.07031,1.46668 -1.07031,3.25781 0,1.79113 -0.43859,4.78041 -0.97266,6.64258 -0.53408,1.86218 -0.73097,3.77049 -0.43945,4.24218 0.29152,0.4717 1.06566,0.8498 1.7207,0.8418 0.65504,-0.008 1.83731,-0.42417 2.62695,-0.92383 1.14709,-0.72585 1.18774,-1.20505 0.20704,-2.38672 -0.97433,-1.17399 -0.96002,-1.56906 0.0644,-1.91406 1.04694,-0.35225 1.03862,-0.74029 -0.041,-2.04883 -0.73291,-0.88802 -1.12184,-2.42319 -0.86523,-3.41211 0.36638,-1.41191 0.49093,-1.31563 0.58203,0.45118 0.0638,1.2375 0.56719,2.25 1.11719,2.25 0.55,0 1,-0.93103 1,-2.07032 0,-1.13928 -0.64398,-2.71428 -1.42969,-3.5 -0.78572,-0.78571 -1.91072,-1.42968 -2.5,-1.42968 z m 28.93945,0.37109 c -0.55025,0.0137 -1.04124,0.2393 -1.57422,0.68164 -0.78985,0.65551 -1.43554,2.39844 -1.43554,3.87109 0,1.47266 0.53922,3.21696 1.19922,3.87696 0.66,0.66 1.69578,1.19922 2.30078,1.19922 0.605,0 1.63883,-0.53922 2.29883,-1.19922 0.66,-0.66 1.20117,-2.4442 1.20117,-3.96485 0,-1.7699 -0.74324,-3.16204 -2.06446,-3.86914 -0.76599,-0.40993 -1.37552,-0.60942 -1.92578,-0.5957 z m -21.00586,0.70508 c -0.44313,-0.004 -0.8828,0.37498 -1.64062,1.13281 -0.90021,0.90021 -1.3642,2.34719 -1.03125,3.21484 0.33295,0.86765 1.23875,1.57618 2.01367,1.57618 0.77492,0 1.98771,-0.69626 2.69531,-1.54883 1.06278,-1.28057 0.99772,-1.84018 -0.37695,-3.21485 -0.7705,-0.77051 -1.21703,-1.15647 -1.66016,-1.16015 z m 21.4961,1.86133 c 0.55,0 1.14237,1.13915 1.3164,2.53125 0.22552,1.8039 -0.15267,2.53125 -1.3164,2.53125 -1.16373,0 -1.54193,-0.72735 -1.31641,-2.53125 0.17403,-1.3921 0.76641,-2.53125 1.31641,-2.53125 z m 13,0.0312 c 0.55,0.0171 1,1.00755 1,2.19922 0,1.19166 -0.59831,2.36414 -1.32813,2.60742 -0.927,0.30899 -1.2284,-0.35294 -1,-2.19727 0.17982,-1.45204 0.77813,-2.62647 1.32813,-2.60937 z m -34.50977,5.03125 c -0.97701,0 -2.05109,0.71521 -2.38672,1.58984 -0.33565,0.87464 -0.35859,1.99964 -0.0488,2.5 0.30926,0.50037 1.36007,0.91016 2.33594,0.91016 h 0.002 c 0.97587,0 2.02518,-0.2498 2.33203,-0.55664 0.30681,-0.30685 0.32868,-1.43186 0.0488,-2.5 -0.27935,-1.06818 -1.3062,-1.94336 -2.28321,-1.94336 z M 17.071821,57.47266 18.92143,59.75782 c 1.62718,2.00948 1.851563,4.20237 1.851563,18.17382 0,8.73907 -0.137678,15.88868 -0.304688,15.88868 -0.16701,0 -2.632316,-1.1598 -5.478516,-2.57813 -2.8462,-1.41832 -6.4954546,-3.81268 -8.1093746,-5.32031 -1.61392,-1.50762 -3.449415,-4.65148 -4.078125,-6.98633 -0.82791,-3.07464 -0.8449317,-5.14302 -0.066406,-7.50195 0.5912,-1.79135 2.5275475,-4.61481 4.3046875,-6.27539 1.77714,-1.66058 4.7611591,-4.07026 6.6308591,-5.35352 z M 39.272993,71.1543 c 2.84743,0 3.5,0.37643 3.5,2.02344 0,1.94858 -0.05088,1.956 -1.355469,0.17187 -0.82984,-1.13491 -1.9931,-1.60904 -3,-1.22265 -0.92681,0.35565 -1.644531,1.73555 -1.644531,3.16211 -10e-7,2.0102 0.496915,2.53125 2.416015,2.53125 1.32916,0 2.644465,-0.5625 2.921875,-1.25 0.30132,-0.74674 0.534831,-0.54544 0.582031,0.5 0.06083,1.34837 -0.723182,1.75 -3.419921,1.75 -3.391301,0 -3.5,-0.11775 -3.5,-3.83203 0,-3.7143 0.108699,-3.83399 3.5,-3.83399 z m 119.999997,7.66602 c 0.83333,0 1.5,0.88889 1.5,2 0,1.11111 -0.66667,2 -1.5,2 -0.83333,0 -1.5,-0.88889 -1.5,-2 0,-1.11111 0.66667,-2 1.5,-2 z m -136.499997,1.41601 10.25,1.73438 c 5.6375,0.95361 18.125,2.22311 27.75,2.82031 9.624999,0.5972 36.734418,1.18434 60.244137,1.30664 l 42.74414,0.22266 0.008,2.5 c 0.007,2.42898 -0.16478,2.49122 -6.0332,2.16015 -3.74447,-0.21124 -6.59574,0.11899 -7.50195,0.8711 -0.85625,0.71057 -1.45627,2.92425 -1.44727,5.34179 0.008,2.27016 0.39962,4.73105 0.86719,5.46875 0.61021,0.9628 2.72256,1.24498 7.48632,1 6.31742,-0.32486 6.63677,-0.23356 6.63477,1.90821 -10e-4,1.25511 -0.55467,2.14971 -1.25195,2.02148 -0.6875,-0.12643 -11.23357,-0.36053 -23.43555,-0.51953 l -22.18555,-0.28906 -0.31445,-2.6543 c -0.17302,-1.45966 -0.88048,-2.83923 -1.57227,-3.06641 -0.76094,-0.24989 -1.51,0.84885 -1.89648,2.78125 l -0.64062,3.19336 -17.101562,-0.65234 c -9.40684,-0.359 -21.378517,-1.10307 -26.603515,-1.65234 -5.225001,-0.54926 -14.225007,-1.92483 -20,-3.0586 -5.775,-1.13377 -13.9875,-3.16052 -18.25,-4.50195 l -7.75,-2.4375 v -7.25 z m 46.226562,8.78906 c -0.559341,0.0514 -1.084704,0.25267 -1.408203,0.57618 -0.5751,0.5751 -0.726251,1.55912 -0.337891,2.1875 0.38836,0.62837 1.413657,1.00584 2.279297,0.83789 0.86564,-0.16795 1.761424,-0.86748 1.990235,-1.55469 0.228819,-0.68721 -0.326665,-1.53449 -1.234376,-1.88281 -0.226927,-0.0871 -0.474238,-0.14147 -0.724609,-0.16407 -0.187778,-0.017 -0.378006,-0.0171 -0.564453,0 z m 25.388672,0.89063 c -0.732255,-0.0118 -1.673513,0.0328 -2.898438,0.10351 l -5.216796,0.30079 -0.304688,4.16601 c -0.24481,3.3616 0.04494,4.23565 1.5,4.51953 0.99187,0.19348 3.347072,0.31338 5.232422,0.26758 2.48015,-0.0603 3.688237,-0.66841 4.373047,-2.20312 0.52057,-1.16665 0.651975,-3.29817 0.291015,-4.73633 -0.462172,-1.84147 -0.779799,-2.38247 -2.976562,-2.41797 z m -3.837891,2.04101 c 0.37243,0.005 0.792991,0.0184 1.271485,0.0371 3.7076,0.14528 4.02499,0.37127 3.75,2.67774 -0.25651,2.1515 -0.846822,2.54674 -4.048828,2.70508 -3.503552,0.17325 -3.750001,-0.002 -3.75,-2.67774 -10e-7,-2.36788 0.170336,-2.77715 2.777343,-2.74219 z m 60.222654,0.86329 h 6 6 v 4.5 4.5 h -6 -6 v -4.5 z m 5.69922,1.41211 c -0.39316,0.0197 -0.7708,0.0698 -1.10743,0.15429 -1.34649,0.33794 -2.71264,1.30531 -3.03711,2.15039 -0.32427,0.84507 -0.078,2.15487 0.54883,2.91016 0.62684,0.75529 2.17287,1.37305 3.43555,1.37305 1.26267,0 3.00893,-0.27162 3.87891,-0.60547 0.86999,-0.33384 1.58203,-1.44304 1.58203,-2.46485 0,-1.0218 -0.89176,-2.33531 -1.98047,-2.91797 -0.81653,-0.43698 -2.14086,-0.65854 -3.32031,-0.5996 z m -14.91407,1.79296 c -0.75083,-0.0635 -1.54678,0.15616 -1.98632,0.59571 -0.58606,0.58606 -0.78191,1.80441 -0.43555,2.70703 0.34637,0.90262 1.41324,1.48916 2.37109,1.30469 0.95785,-0.18446 1.89367,-1.11833 2.07813,-2.07618 0.18447,-0.95785 -0.40402,-2.02472 -1.30664,-2.37109 -0.22566,-0.0866 -0.47043,-0.13899 -0.72071,-0.16016 z m 15.9043,0.0371 c 0.54638,-0.002 1.02332,0.0805 1.30078,0.25196 0.55492,0.34296 1.00977,1.04886 1.00977,1.5664 0,0.51754 -1.09887,0.93946 -2.44141,0.93946 -1.34254,0 -2.70018,-0.41734 -3.01562,-0.92774 -0.31545,-0.51041 0.33053,-1.21435 1.43359,-1.56445 0.55154,-0.17506 1.16651,-0.26327 1.71289,-0.26563 z m -88.367182,0.89649 c -0.922506,-0.0345 -1.32227,0.54344 -1.322265,1.86133 0,1.50615 0.522148,2.04705 1.75,1.81054 0.9625,-0.18536 1.75,-1.0006 1.75,-1.81054 0,-0.80994 -0.7875,-1.62324 -1.75,-1.8086 -0.153482,-0.0296 -0.295948,-0.0478 -0.427735,-0.0527 z m 48.677732,11.86133 c 1.61905,0 2,0.66667 2,3.5 0,1.925 -0.12875,3.5 -0.28516,3.5 -0.15642,0 -1.05642,-1.30694 -2,-2.9043 -0.94359,-1.59736 -1.71484,-3.17236 -1.71484,-3.5 0,-0.32764 0.9,-0.5957 2,-0.5957 z m 4,0 h 4.5 4.5 v 4 4 h -4.5 -4.5 v -4 z m 4.40625,10 c 0.91407,0 1.22273,0.70014 0.88281,2 -0.28766,1.1 -0.9204,2 -1.40625,2 -0.48585,0 -0.88281,-0.9 -0.88281,-2 0,-1.1 0.63274,-2 1.40625,-2 z m -5.06836,17.50586 c 1.45382,-0.0526 3.07312,0.18078 4.05664,0.6289 1.31136,0.59749 2.88349,2.18322 3.49414,3.52344 0.61065,1.34023 1.11133,3.25415 1.11133,4.25391 0,0.99996 -0.9343,3.00395 -2.07422,4.45312 -1.57879,2.00711 -2.96247,2.63477 -5.81055,2.63477 -2.38042,0 -4.53434,-0.74092 -5.92773,-2.03907 -1.38116,-1.28674 -2.1875,-3.23355 -2.1875,-5.27734 0,-1.7812 0.65763,-4.17844 1.46289,-5.32812 0.80527,-1.14968 2.83314,-2.36468 4.50586,-2.69922 0.41818,-0.0836 0.88453,-0.13286 1.36914,-0.15039 z m 0.69726,1.49414 c -1.45963,0 -3.39099,0.5625 -4.29101,1.25 -0.90002,0.6875 -1.92738,2.46634 -2.28516,3.95117 -0.50445,2.09348 -0.0792,3.27233 1.89844,5.25 1.40268,1.40267 3.37043,2.54883 4.37305,2.54883 1.00262,0 2.8245,-0.70047 4.04687,-1.55664 1.48774,-1.04206 2.22266,-2.58506 2.22266,-4.66993 0,-1.71301 -0.746,-3.93755 -1.65625,-4.94336 -0.91024,-1.00581 -2.84896,-1.83007 -4.3086,-1.83007 z"
     inkscape:connector-curvature="0"
     inkscape:export-xdpi="750.17279"
     inkscape:export-ydpi="750.17279" />
</svg>
